<svg width="100" height="100" viewBox="0 0 100 100" fill="none" xmlns="http://www.w3.org/2000/svg">
<rect width="100" height="100" fill="white"/>
<path d="M61.816 74C61.3467 72.464 60.8133 70.8853 60.216 69.264C59.6613 67.6427 59.1067 66.0213 58.552 64.4H41.272C40.7173 66.0213 40.1413 67.6427 39.544 69.264C38.9893 70.8853 38.4773 72.464 38.008 74H27.64C29.304 69.2213 30.8827 64.8053 32.376 60.752C33.8693 56.6987 35.32 52.88 36.728 49.296C38.1787 45.712 39.5867 42.32 40.952 39.12C42.36 35.8773 43.8107 32.72 45.304 29.648H54.84C56.2907 32.72 57.72 35.8773 59.128 39.12C60.536 42.32 61.944 45.712 63.352 49.296C64.8027 52.88 66.2747 56.6987 67.768 60.752C69.2613 64.8053 70.84 69.2213 72.504 74H61.816ZM49.848 39.696C49.6347 40.336 49.3147 41.2107 48.888 42.32C48.4613 43.4293 47.9707 44.7093 47.416 46.16C46.8613 47.6107 46.2427 49.2107 45.56 50.96C44.92 52.7093 44.2587 54.544 43.576 56.464H56.184C55.5013 54.544 54.84 52.7093 54.2 50.96C53.56 49.2107 52.9413 47.6107 52.344 46.16C51.7893 44.7093 51.2987 43.4293 50.872 42.32C50.4453 41.2107 50.104 40.336 49.848 39.696Z" fill="#FF5722"/>
</svg>
